<svg width="356" height="57" viewBox="0 0 356 57" fill="none" xmlns="http://www.w3.org/2000/svg">
<path fill-rule="evenodd" clip-rule="evenodd" d="M335.651 51.6794H331.518L325.698 35.7483H303.18L297.33 51.6794H293.369L311.195 3.19727H317.653L335.651 51.6794ZM304.444 32.3038H324.439L314.467 5.00565L304.444 32.3038Z" fill="#F8F8F8"/>
<path d="M356 6.72792H349.283V48.2349H356V51.6794H338.605V48.2349H345.408V6.72792H338.605V3.19727H356V6.72792Z" fill="#F8F8F8"/>
<path d="M200.45 51.6824L185.723 15H194.996L201.541 31.7048C203.587 37.2958 204.746 42.2049 204.746 42.2049C204.746 42.2049 205.905 37.2958 207.95 31.7048L214.496 15H223.769L209.109 51.6824H200.45Z" fill="#F8F8F8"/>
<path d="M173.449 51.6826V15.0002H181.971V51.6826H173.449ZM173.176 9.00013V0H182.244V9.00013H173.176Z" fill="#F8F8F8"/>
<path d="M145.767 52.4324C136.903 52.4324 131.039 45.6823 131.039 35.4549V15H139.562V34.9094C139.562 40.4322 143.039 44.3186 148.221 44.3186C153.539 44.3186 157.085 40.5686 157.221 33.4094V15H165.744V51.6824H158.176V45.3414C155.449 49.7732 151.085 52.4324 145.767 52.4324Z" fill="#F8F8F8"/>
<path d="M284.558 14.25C287.368 14.25 289.489 15.0751 291.112 16.6396L288.349 23.5811C286.021 21.959 283.886 22.2898 281.694 22.5684C278.021 23.0353 274.603 26.796 274.603 34.3643V51.6826H266.08V15H273.717V21.4775C275.899 16.9776 279.717 14.25 284.558 14.25Z" fill="#F8F8F8"/>
<path fill-rule="evenodd" clip-rule="evenodd" d="M100.727 3.19727C114.705 3.19727 125.341 13.8338 125.341 27.7431C125.341 33.1929 123.74 38.1294 120.963 42.1305L128.841 50.1712L122.876 56.0154L115.064 48.042C111.073 50.8233 106.152 52.4253 100.727 52.4253C86.7498 52.4253 76.1133 41.7887 76.1133 27.7431C76.1133 13.8338 86.7498 3.19727 100.727 3.19727ZM100.727 11.8565C91.9999 11.8565 85.2498 18.8111 85.2498 27.7431C85.2498 36.8114 91.9999 43.7661 100.727 43.7661C103.684 43.7661 106.406 42.9677 108.713 41.5595L98.2178 30.8474L104.183 25.0032L114.363 35.3938C115.5 33.1399 116.137 30.5422 116.137 27.7431C116.137 18.8111 109.455 11.8565 100.727 11.8565Z" fill="#F8F8F8"/>
<path fill-rule="evenodd" clip-rule="evenodd" d="M242.582 14.251C252.742 14.251 260.378 21.8193 260.378 31.7058C260.378 32.7967 260.378 34.6325 260.378 35.524H232.423C233.378 41.0468 237.401 44.5923 242.992 44.5923C247.605 44.5923 250.753 42.7887 251.635 39.6514H260.298C258.371 47.3096 252.541 52.4333 243.264 52.4333C231.878 52.4333 223.9 44.5242 223.9 33.4104C223.9 22.3647 232.082 14.251 242.582 14.251ZM242.446 21.7511C237.537 21.7511 234.196 24.342 232.832 28.5012H251.242C251.037 24.5466 247.423 21.7511 242.446 21.7511Z" fill="#F8F8F8"/>
<path fill-rule="evenodd" clip-rule="evenodd" d="M24.8011 2.1377C38.4983 2.13773 49.602 13.2416 49.602 26.9388V51.7397H24.8011C11.1039 51.7397 3.91032e-05 40.636 0 26.9388C0 13.2416 11.1039 2.1377 24.8011 2.1377ZM13.2728 13.931C12.3636 13.6264 11.4982 14.4934 11.8045 15.402L21.8775 45.2735C22.2974 46.5186 24.1374 46.2167 24.1374 44.9027V26.1869H42.7303C44.0455 26.1868 44.3459 24.3443 43.0989 23.9264L13.2728 13.931Z" fill="#F8F8F8"/>
</svg>
