<svg width="356" height="57" viewBox="0 0 356 57" fill="none" xmlns="http://www.w3.org/2000/svg">
<path fill-rule="evenodd" clip-rule="evenodd" d="M335.651 51.6799H331.518L325.698 35.7488H303.18L297.33 51.6799H293.369L311.195 3.19775H317.653L335.651 51.6799ZM304.444 32.3043H324.439L314.467 5.00614L304.444 32.3043Z" fill="#333333"/>
<path d="M356 6.72841H349.283V48.2353H356V51.6799H338.605V48.2353H345.408V6.72841H338.605V3.19775H356V6.72841Z" fill="#333333"/>
<path d="M200.45 51.6824L185.723 15H194.996L201.541 31.7048C203.587 37.2958 204.746 42.2049 204.746 42.2049C204.746 42.2049 205.905 37.2958 207.95 31.7048L214.496 15H223.769L209.109 51.6824H200.45Z" fill="#333333"/>
<path d="M173.449 51.6826V15.0002H181.971V51.6826H173.449ZM173.176 9.00013V0H182.244V9.00013H173.176Z" fill="#333333"/>
<path d="M145.767 52.4324C136.903 52.4324 131.039 45.6823 131.039 35.4549V15H139.562V34.9094C139.562 40.4322 143.039 44.3186 148.221 44.3186C153.539 44.3186 157.085 40.5686 157.221 33.4094V15H165.744V51.6824H158.176V45.3414C155.449 49.7732 151.085 52.4324 145.767 52.4324Z" fill="#333333"/>
<path d="M284.558 14.25C287.368 14.25 289.489 15.0751 291.112 16.6396L288.349 23.5811C286.021 21.959 283.886 22.2898 281.694 22.5684C278.021 23.0353 274.603 26.796 274.603 34.3643V51.6826H266.08V15H273.717V21.4775C275.899 16.9776 279.717 14.25 284.558 14.25Z" fill="#333333"/>
<path fill-rule="evenodd" clip-rule="evenodd" d="M100.727 3.19775C114.705 3.19775 125.341 13.8343 125.341 27.7436C125.341 33.1934 123.74 38.1299 120.963 42.131L128.841 50.1717L122.876 56.0159L115.064 48.0425C111.073 50.8238 106.152 52.4257 100.727 52.4257C86.7498 52.4257 76.1133 41.7892 76.1133 27.7436C76.1133 13.8343 86.7498 3.19776 100.727 3.19775ZM100.727 11.857C91.9999 11.857 85.2498 18.8116 85.2498 27.7436C85.2498 36.8119 91.9999 43.7665 100.727 43.7665C103.684 43.7665 106.406 42.9682 108.713 41.5599L98.2178 30.8479L104.183 25.0037L114.363 35.3943C115.5 33.1403 116.137 30.5427 116.137 27.7436C116.137 18.8116 109.455 11.857 100.727 11.857Z" fill="#333333"/>
<path fill-rule="evenodd" clip-rule="evenodd" d="M242.582 14.251C252.742 14.251 260.378 21.8193 260.378 31.7058C260.378 32.7967 260.378 34.6325 260.378 35.524H232.423C233.378 41.0468 237.401 44.5923 242.992 44.5923C247.605 44.5923 250.753 42.7887 251.635 39.6514H260.298C258.371 47.3096 252.541 52.4333 243.264 52.4333C231.878 52.4333 223.9 44.5242 223.9 33.4104C223.9 22.3647 232.082 14.251 242.582 14.251ZM242.446 21.7511C237.537 21.7511 234.196 24.342 232.832 28.5012H251.242C251.037 24.5466 247.423 21.7511 242.446 21.7511Z" fill="#333333"/>
<path fill-rule="evenodd" clip-rule="evenodd" d="M24.8011 2.13818C38.4983 2.13822 49.602 13.2421 49.602 26.9393V51.7402H24.8011C11.1039 51.7402 3.91032e-05 40.6365 0 26.9393C0 13.2421 11.1039 2.13818 24.8011 2.13818ZM13.2728 13.9315C12.3636 13.6269 11.4982 14.4939 11.8045 15.4025L21.8775 45.274C22.2974 46.5191 24.1374 46.2171 24.1374 44.9032V26.1874H42.7303C44.0455 26.1873 44.3459 24.3448 43.0989 23.9269L13.2728 13.9315Z" fill="#333333"/>
</svg>
